NotoSansSamaritan-Regular.ufo
<glyph name="uni0803" format="2">
  <advance width="658"/>
  <unicode hex="0803"/>
  <outline>
    <contour>
      <point x="542" y="-46" type="line"/>
      <point x="566" y="0"/>
      <point x="580" y="52"/>
      <point x="580" y="103" type="curve" smooth="yes"/>
      <point x="580" y="139"/>
      <point x="575" y="187"/>
      <point x="553" y="244" type="curve" smooth="yes"/>
      <point x="510" y="355"/>
      <point x="454" y="479"/>
      <point x="406" y="562" type="curve"/>
      <point x="420" y="564"/>
      <point x="435" y="565"/>
      <point x="449" y="565" type="curve" smooth="yes"/>
      <point x="479" y="565"/>
      <point x="519" y="556"/>
      <point x="548" y="545" type="curve"/>
      <point x="577" y="637" type="line"/>
      <point x="544" y="648"/>
      <point x="501" y="654"/>
      <point x="468" y="654" type="curve" smooth="yes"/>
      <point x="432" y="654"/>
      <point x="395" y="648"/>
      <point x="358" y="635" type="curve"/>
      <point x="345" y="650"/>
      <point x="334" y="659"/>
      <point x="326" y="659" type="curve" smooth="yes"/>
      <point x="289" y="659"/>
      <point x="269" y="641"/>
      <point x="251" y="625" type="curve" smooth="yes"/>
      <point x="170" y="555"/>
      <point x="63" y="420"/>
      <point x="63" y="383" type="curve" smooth="yes"/>
      <point x="63" y="367"/>
      <point x="72" y="354"/>
      <point x="95" y="333" type="curve" smooth="yes"/>
      <point x="106" y="323"/>
      <point x="124" y="319"/>
      <point x="160" y="319" type="curve" smooth="yes"/>
      <point x="312" y="319" type="line" smooth="yes"/>
      <point x="338" y="319"/>
      <point x="387" y="317"/>
      <point x="427" y="315" type="curve"/>
      <point x="450" y="252"/>
      <point x="460" y="190"/>
      <point x="460" y="143" type="curve" smooth="yes"/>
      <point x="460" y="97"/>
      <point x="446" y="41"/>
      <point x="425" y="0" type="curve"/>
    </contour>
    <contour>
      <point x="402" y="395" type="curve"/>
      <point x="365" y="396"/>
      <point x="316" y="396"/>
      <point x="301" y="396" type="curve" smooth="yes"/>
      <point x="193" y="396" type="line" smooth="yes"/>
      <point x="186" y="396"/>
      <point x="183" y="398"/>
      <point x="183" y="404" type="curve" smooth="yes"/>
      <point x="183" y="438"/>
      <point x="281" y="574"/>
      <point x="301" y="583" type="curve"/>
      <point x="324" y="581"/>
      <point x="364" y="496"/>
    </contour>
  </outline>
</glyph>
<glyph name="uni0804" format="2">
  <advance width="858"/>
  <unicode hex="0804"/>
  <outline>
    <contour>
      <point x="745" y="-46" type="line"/>
      <point x="769" y="0"/>
      <point x="780" y="49"/>
      <point x="780" y="99" type="curve" smooth="yes"/>
      <point x="780" y="229"/>
      <point x="685" y="426"/>
      <point x="545" y="597" type="curve" smooth="yes"/>
      <point x="499" y="653" type="line"/>
      <point x="478" y="657"/>
      <point x="403" y="660"/>
      <point x="374" y="660" type="curve" smooth="yes"/>
      <point x="238" y="660"/>
      <point x="102" y="625"/>
      <point x="63" y="546" type="curve"/>
      <point x="133" y="460" type="line"/>
      <point x="167" y="515"/>
      <point x="217" y="581"/>
      <point x="459" y="583" type="curve"/>
      <point x="469" y="569"/>
      <point x="480" y="556"/>
      <point x="490" y="542" type="curve"/>
      <point x="415" y="499"/>
      <point x="226" y="414"/>
      <point x="190" y="287" type="curve"/>
      <point x="291" y="247" type="line"/>
      <point x="307" y="344"/>
      <point x="413" y="438"/>
      <point x="524" y="491" type="curve"/>
      <point x="558" y="439"/>
      <point x="586" y="388"/>
      <point x="608" y="339" type="curve"/>
      <point x="535" y="296"/>
      <point x="341" y="211"/>
      <point x="305" y="82" type="curve"/>
      <point x="406" y="42" type="line"/>
      <point x="421" y="137"/>
      <point x="531" y="221"/>
      <point x="631" y="282" type="curve"/>
      <point x="652" y="226"/>
      <point x="661" y="174"/>
      <point x="661" y="130" type="curve" smooth="yes"/>
      <point x="661" y="84"/>
      <point x="650" y="41"/>
      <point x="628" y="0" type="curve"/>
    </contour>
  </outline>
</glyph>
<glyph name="uni0805" format="2">
  <advance width="926"/>
  <unicode hex="0805"/>
  <outline>
    <contour>
      <point x="813" y="-46" type="line"/>
      <point x="837" y="0"/>
      <point x="848" y="49"/>
      <point x="848" y="99" type="curve" smooth="yes"/>
      <point x="848" y="229"/>
      <point x="726" y="446"/>
      <point x="595" y="624" type="curve" smooth="yes"/>
      <point x="583" y="640"/>
      <point x="566" y="666"/>
      <point x="551" y="666" type="curve" smooth="yes"/>
      <point x="524" y="666"/>
      <point x="482" y="662"/>
      <point x="433" y="655" type="curve" smooth="yes"/>
      <point x="301" y="637"/>
      <point x="116" y="603"/>
      <point x="63" y="468" type="curve"/>
      <point x="146" y="393" type="line"/>
      <point x="198" y="514"/>
      <point x="288" y="560"/>
      <point x="515" y="593" type="curve"/>
      <point x="545" y="554"/>
      <point x="573" y="514"/>
      <point x="598" y="475" type="curve"/>
      <point x="488" y="425"/>
      <point x="309" y="339"/>
      <point x="270" y="237" type="curve"/>
      <point x="364" y="183" type="line"/>
      <point x="387" y="266"/>
      <point x="500" y="348"/>
      <point x="634" y="416" type="curve"/>
      <point x="694" y="308"/>
      <point x="729" y="207"/>
      <point x="729" y="130" type="curve" smooth="yes"/>
      <point x="729" y="84"/>
      <point x="718" y="41"/>
      <point x="696" y="0" type="curve"/>
    </contour>
  </outline>
</glyph>
<glyph name="uni0806" format="2">
  <advance width="878"/>
  <unicode hex="0806"/>
  <outline>
    <contour>
      <point x="330" y="-53" type="line"/>
      <point x="497" y="65"/>
      <point x="800" y="6"/>
      <point x="800" y="166" type="curve" smooth="yes"/>
      <point x="800" y="252"/>
      <point x="704" y="664"/>
      <point x="622" y="664" type="curve" smooth="yes"/>
      <point x="513" y="664"/>
      <point x="359" y="599"/>
      <point x="264" y="537" type="curve"/>
      <point x="238" y="643"/>
      <point x="201" y="721"/>
      <point x="104" y="733" type="curve"/>
      <point x="63" y="623" type="line"/>
      <point x="190" y="616"/>
      <point x="204" y="437"/>
      <point x="260" y="226" type="curve" smooth="yes"/>
      <point x="268" y="197"/>
      <point x="294" y="185"/>
      <point x="321" y="185" type="curve" smooth="yes"/>
      <point x="360" y="185"/>
      <point x="467" y="200"/>
      <point x="652" y="333" type="curve"/>
      <point x="668" y="265"/>
      <point x="681" y="203"/>
      <point x="681" y="181" type="curve" smooth="yes"/>
      <point x="681" y="91"/>
      <point x="577" y="89"/>
      <point x="465" y="89" type="curve" smooth="yes"/>
      <point x="401" y="89"/>
      <point x="326" y="84"/>
      <point x="276" y="48" type="curve"/>
    </contour>
    <contour>
      <point x="327" y="254" type="curve"/>
      <point x="309" y="315"/>
      <point x="298" y="377"/>
      <point x="286" y="435" type="curve"/>
      <point x="398" y="536"/>
      <point x="502" y="580"/>
      <point x="564" y="580" type="curve" smooth="yes"/>
      <point x="579" y="580"/>
      <point x="601" y="517"/>
      <point x="623" y="440" type="curve"/>
      <point x="540" y="346"/>
      <point x="428" y="257"/>
    </contour>
  </outline>
</glyph>
<glyph name="uni0808" format="2">
  <advance width="953"/>
  <unicode hex="0808"/>
  <outline>
    <contour>
      <point x="438" y="-39" type="curve" smooth="yes"/>
      <point x="544" y="-39"/>
      <point x="647" y="65"/>
      <point x="721" y="180" type="curve" smooth="yes"/>
      <point x="790" y="288"/>
      <point x="860" y="437"/>
      <point x="865" y="568" type="curve"/>
      <point x="857" y="615"/>
      <point x="808" y="659"/>
      <point x="751" y="659" type="curve" smooth="yes"/>
      <point x="662" y="659"/>
      <point x="474" y="527"/>
      <point x="474" y="478" type="curve" smooth="yes"/>
      <point x="474" y="431"/>
      <point x="486" y="399"/>
      <point x="523" y="360" type="curve"/>
      <point x="609" y="446" type="line"/>
      <point x="599" y="458"/>
      <point x="591" y="470"/>
      <point x="591" y="489" type="curve" smooth="yes"/>
      <point x="591" y="530"/>
      <point x="661" y="569"/>
      <point x="719" y="569" type="curve" smooth="yes"/>
      <point x="736" y="569"/>
      <point x="745" y="563"/>
      <point x="745" y="551" type="curve" smooth="yes"/>
      <point x="745" y="414"/>
      <point x="678" y="235"/>
      <point x="587" y="134" type="curve" smooth="yes"/>
      <point x="542" y="84"/>
      <point x="497" y="59"/>
      <point x="450" y="59" type="curve" smooth="yes"/>
      <point x="345" y="59"/>
      <point x="215" y="373"/>
      <point x="215" y="512" type="curve" smooth="yes"/>
      <point x="215" y="525"/>
      <point x="232" y="533"/>
      <point x="277" y="544" type="curve" smooth="yes"/>
      <point x="351" y="562"/>
      <point x="408" y="575"/>
      <point x="464" y="605" type="curve"/>
      <point x="434" y="667" type="line"/>
      <point x="398" y="645"/>
      <point x="333" y="626"/>
      <point x="240" y="611" type="curve" smooth="yes"/>
      <point x="146" y="596"/>
      <point x="96" y="583"/>
      <point x="88" y="573" type="curve"/>
      <point x="88" y="505"/>
      <point x="105" y="417"/>
      <point x="141" y="309" type="curve" smooth="yes"/>
      <point x="197" y="140"/>
      <point x="295" y="-39"/>
    </contour>
  </outline>
</glyph>
<glyph name="uni080A" format="2">
  <advance width="736"/>
  <unicode hex="080A"/>
  <outline>
    <contour>
      <point x="438" y="-42" type="curve" smooth="yes"/>
      <point x="576" y="-42"/>
      <point x="615" y="39"/>
      <point x="615" y="85" type="curve" smooth="yes"/>
      <point x="615" y="88"/>
      <point x="615" y="115"/>
      <point x="615" y="157" type="curve" smooth="yes"/>
      <point x="615" y="281"/>
      <point x="619" y="524"/>
      <point x="648" y="629" type="curve"/>
      <point x="530" y="655" type="line"/>
      <point x="505" y="558"/>
      <point x="456" y="498"/>
      <point x="350" y="498" type="curve" smooth="yes"/>
      <point x="252" y="498"/>
      <point x="216" y="527"/>
      <point x="216" y="588" type="curve" smooth="yes"/>
      <point x="216" y="601"/>
      <point x="217" y="614"/>
      <point x="220" y="627" type="curve"/>
      <point x="106" y="658" type="line"/>
      <point x="101" y="638"/>
      <point x="99" y="618"/>
      <point x="99" y="599" type="curve" smooth="yes"/>
      <point x="99" y="484"/>
      <point x="184" y="420"/>
      <point x="333" y="420" type="curve" smooth="yes"/>
      <point x="407" y="420"/>
      <point x="468" y="440"/>
      <point x="514" y="475" type="curve"/>
      <point x="513" y="460"/>
      <point x="513" y="444"/>
      <point x="513" y="429" type="curve" smooth="yes"/>
      <point x="513" y="299"/>
      <point x="536" y="186"/>
      <point x="536" y="114" type="curve" smooth="yes"/>
      <point x="536" y="61"/>
      <point x="496" y="35"/>
      <point x="438" y="35" type="curve" smooth="yes"/>
      <point x="300" y="35"/>
      <point x="245" y="113"/>
      <point x="159" y="113" type="curve" smooth="yes"/>
      <point x="132" y="113"/>
      <point x="120" y="111"/>
      <point x="107" y="109" type="curve"/>
      <point x="88" y="-6" type="line"/>
      <point x="104" y="-2"/>
      <point x="133" y="0"/>
      <point x="154" y="0" type="curve" smooth="yes"/>
      <point x="229" y="0"/>
      <point x="264" y="-42"/>
    </contour>
  </outline>
</glyph>
<glyph name="uni080D" format="2">
  <advance width="727"/>
  <unicode hex="080D"/>
  <outline>
    <contour>
      <point x="402" y="-34" type="curve" smooth="yes"/>
      <point x="629" y="-34"/>
      <point x="639" y="149"/>
      <point x="639" y="314" type="curve" smooth="yes"/>
      <point x="639" y="548"/>
      <point x="600" y="659"/>
      <point x="375" y="659" type="curve" smooth="yes"/>
      <point x="308" y="659"/>
      <point x="239" y="647"/>
      <point x="181" y="624" type="curve"/>
      <point x="179" y="642"/>
      <point x="179" y="659"/>
      <point x="179" y="677" type="curve" smooth="yes"/>
      <point x="179" y="768"/>
      <point x="194" y="859"/>
      <point x="214" y="937" type="curve"/>
      <point x="94" y="962" type="line"/>
      <point x="83" y="908"/>
      <point x="78" y="861"/>
      <point x="78" y="799" type="curve" smooth="yes"/>
      <point x="78" y="719"/>
      <point x="98" y="598"/>
      <point x="117" y="544" type="curve"/>
      <point x="166" y="530" type="line"/>
      <point x="202" y="561"/>
      <point x="259" y="582"/>
      <point x="351" y="582" type="curve" smooth="yes"/>
      <point x="516" y="582"/>
      <point x="522" y="463"/>
      <point x="522" y="329" type="curve" smooth="yes"/>
      <point x="522" y="206"/>
      <point x="512" y="43"/>
      <point x="393" y="43" type="curve" smooth="yes"/>
      <point x="277" y="43"/>
      <point x="254" y="107"/>
      <point x="142" y="107" type="curve" smooth="yes"/>
      <point x="129" y="107"/>
      <point x="117" y="105"/>
      <point x="104" y="103" type="curve"/>
      <point x="84" y="-12" type="line"/>
      <point x="101" y="-7"/>
      <point x="120" y="-6"/>
      <point x="141" y="-6" type="curve" smooth="yes"/>
      <point x="257" y="-6"/>
      <point x="274" y="-34"/>
    </contour>
  </outline>
</glyph>
<glyph name="uni080E" format="2">
  <advance width="771"/>
  <unicode hex="080E"/>
  <outline>
    <contour>
      <point x="219" y="-38" type="curve"/>
      <point x="338" y="-16" type="line"/>
      <point x="338" y="8"/>
      <point x="336" y="35"/>
      <point x="331" y="63" type="curve"/>
      <point x="427" y="94"/>
      <point x="712" y="229"/>
      <point x="712" y="304" type="curve" smooth="yes"/>
      <point x="712" y="399"/>
      <point x="436" y="604"/>
      <point x="271" y="666" type="curve"/>
      <point x="287" y="708"/>
      <point x="297" y="751"/>
      <point x="297" y="792" type="curve" smooth="yes"/>
      <point x="297" y="854"/>
      <point x="268" y="944"/>
      <point x="161" y="1001" type="curve"/>
      <point x="106" y="899" type="line"/>
      <point x="169" y="878"/>
      <point x="206" y="812"/>
      <point x="206" y="759" type="curve" smooth="yes"/>
      <point x="206" y="727"/>
      <point x="197" y="665"/>
      <point x="191" y="629" type="curve"/>
      <point x="220" y="618"/>
      <point x="252" y="603"/>
      <point x="285" y="584" type="curve"/>
      <point x="225" y="493"/>
      <point x="127" y="439"/>
      <point x="106" y="423" type="curve" smooth="yes"/>
      <point x="90" y="411"/>
      <point x="78" y="400"/>
      <point x="78" y="386" type="curve" smooth="yes"/>
      <point x="78" y="368"/>
      <point x="96" y="343"/>
      <point x="101" y="334" type="curve" smooth="yes"/>
      <point x="157" y="238"/>
      <point x="201" y="161"/>
    </contour>
    <contour>
      <point x="314" y="127" type="curve"/>
      <point x="285" y="221"/>
      <point x="230" y="317"/>
      <point x="162" y="380" type="curve"/>
      <point x="242" y="423"/>
      <point x="329" y="480"/>
      <point x="371" y="531" type="curve"/>
      <point x="461" y="468"/>
      <point x="546" y="388"/>
      <point x="590" y="306" type="curve"/>
      <point x="539" y="238"/>
      <point x="433" y="175"/>
    </contour>
  </outline>
</glyph>
<glyph name="uni0810" format="2">
  <advance width="754"/>
  <unicode hex="0810"/>
  <outline>
    <contour>
      <point x="430" y="-29" type="curve" smooth="yes"/>
      <point x="656" y="-29"/>
      <point x="666" y="143"/>
      <point x="666" y="308" type="curve" smooth="yes"/>
      <point x="666" y="542"/>
      <point x="626" y="664"/>
      <point x="401" y="664" type="curve" smooth="yes"/>
      <point x="291" y="664"/>
      <point x="210" y="660"/>
      <point x="78" y="578" type="curve"/>
      <point x="141" y="486" type="line"/>
      <point x="177" y="517"/>
      <point x="286" y="586"/>
      <point x="377" y="586" type="curve" smooth="yes"/>
      <point x="542" y="586"/>
      <point x="549" y="457"/>
      <point x="549" y="323" type="curve" smooth="yes"/>
      <point x="549" y="199"/>
      <point x="539" y="48"/>
      <point x="420" y="48" type="curve" smooth="yes"/>
      <point x="304" y="48"/>
      <point x="249" y="112"/>
      <point x="136" y="112" type="curve" smooth="yes"/>
      <point x="124" y="112"/>
      <point x="111" y="110"/>
      <point x="98" y="108" type="curve"/>
      <point x="79" y="-7" type="line"/>
      <point x="95" y="-2"/>
      <point x="114" y="-1"/>
      <point x="135" y="-1" type="curve" smooth="yes"/>
      <point x="251" y="-1"/>
      <point x="302" y="-29"/>
    </contour>
  </outline>
</glyph>
<glyph name="uni0812" format="2">
  <advance width="728"/>
  <unicode hex="0812"/>
  <outline>
    <contour>
      <point x="399" y="-40" type="line"/>
      <point x="415" y="-11"/>
      <point x="422" y="23"/>
      <point x="422" y="61" type="curve" smooth="yes"/>
      <point x="422" y="105"/>
      <point x="412" y="151"/>
      <point x="394" y="199" type="curve"/>
      <point x="474" y="268" type="line" smooth="yes"/>
      <point x="521" y="309"/>
      <point x="640" y="411"/>
      <point x="640" y="451" type="curve" smooth="yes"/>
      <point x="640" y="551"/>
      <point x="545" y="678"/>
      <point x="366" y="678" type="curve" smooth="yes"/>
      <point x="272" y="678"/>
      <point x="178" y="649"/>
      <point x="68" y="569" type="curve"/>
      <point x="212" y="397"/>
      <point x="302" y="228"/>
      <point x="302" y="87" type="curve" smooth="yes"/>
      <point x="302" y="55"/>
      <point x="297" y="26"/>
      <point x="286" y="0" type="curve"/>
    </contour>
    <contour>
      <point x="364" y="268" type="line"/>
      <point x="347" y="303"/>
      <point x="327" y="337"/>
      <point x="305" y="373" type="curve" smooth="yes"/>
      <point x="268" y="432"/>
      <point x="226" y="487"/>
      <point x="181" y="537" type="curve"/>
      <point x="233" y="583"/>
      <point x="297" y="605"/>
      <point x="355" y="605" type="curve" smooth="yes"/>
      <point x="477" y="605"/>
      <point x="523" y="516"/>
      <point x="523" y="444" type="curve" smooth="yes"/>
      <point x="523" y="419"/>
      <point x="495" y="383"/>
      <point x="454" y="347" type="curve" smooth="yes"/>
    </contour>
  </outline>
</glyph>
<glyph name="uni0813" format="2">
  <advance width="713"/>
  <unicode hex="0813"/>
  <outline>
    <contour>
      <point x="620" y="-45" type="line"/>
      <point x="630" y="-25"/>
      <point x="635" y="0"/>
      <point x="635" y="30" type="curve" smooth="yes"/>
      <point x="635" y="173"/>
      <point x="509" y="439"/>
      <point x="397" y="620" type="curve" smooth="yes"/>
      <point x="384" y="640"/>
      <point x="368" y="671"/>
      <point x="347" y="671" type="curve" smooth="yes"/>
      <point x="324" y="671"/>
      <point x="310" y="660"/>
      <point x="292" y="644" type="curve" smooth="yes"/>
      <point x="211" y="573"/>
      <point x="63" y="387"/>
      <point x="63" y="350" type="curve" smooth="yes"/>
      <point x="63" y="334"/>
      <point x="72" y="321"/>
      <point x="95" y="301" type="curve" smooth="yes"/>
      <point x="106" y="291"/>
      <point x="124" y="286"/>
      <point x="160" y="286" type="curve" smooth="yes"/>
      <point x="303" y="286" type="line" smooth="yes"/>
      <point x="347" y="286"/>
      <point x="422" y="283"/>
      <point x="483" y="277" type="curve"/>
      <point x="502" y="213"/>
      <point x="515" y="145"/>
      <point x="515" y="76" type="curve" smooth="yes"/>
      <point x="515" y="48"/>
      <point x="511" y="22"/>
      <point x="503" y="0" type="curve"/>
    </contour>
    <contour>
      <point x="454" y="360" type="curve"/>
      <point x="399" y="362"/>
      <point x="317" y="364"/>
      <point x="292" y="364" type="curve" smooth="yes"/>
      <point x="194" y="364" type="line" smooth="yes"/>
      <point x="186" y="364"/>
      <point x="183" y="365"/>
      <point x="183" y="371" type="curve" smooth="yes"/>
      <point x="183" y="406"/>
      <point x="310" y="580"/>
      <point x="329" y="589" type="curve"/>
      <point x="349" y="568"/>
      <point x="407" y="478"/>
    </contour>
  </outline>
</glyph>
<glyph name="uni0814" format="2">
  <advance width="841"/>
  <unicode hex="0814"/>
  <outline>
    <contour>
      <point x="250" y="369" type="curve" smooth="yes"/>
      <point x="317" y="369"/>
      <point x="365" y="402"/>
      <point x="399" y="452" type="curve"/>
      <point x="427" y="399"/>
      <point x="485" y="369"/>
      <point x="562" y="369" type="curve" smooth="yes"/>
      <point x="688" y="369"/>
      <point x="773" y="447"/>
      <point x="778" y="666" type="curve"/>
      <point x="698" y="691" type="line"/>
      <point x="694" y="516"/>
      <point x="642" y="446"/>
      <point x="574" y="446" type="curve" smooth="yes"/>
      <point x="505" y="446"/>
      <point x="493" y="504"/>
      <point x="493" y="557" type="curve" smooth="yes"/>
      <point x="493" y="583"/>
      <point x="499" y="624"/>
      <point x="508" y="660" type="curve"/>
      <point x="394" y="691" type="line"/>
      <point x="386" y="665"/>
      <point x="381" y="637"/>
      <point x="378" y="611" type="curve"/>
      <point x="355" y="523"/>
      <point x="322" y="446"/>
      <point x="257" y="446" type="curve" smooth="yes"/>
      <point x="188" y="446"/>
      <point x="176" y="504"/>
      <point x="176" y="557" type="curve" smooth="yes"/>
      <point x="176" y="583"/>
      <point x="182" y="624"/>
      <point x="192" y="660" type="curve"/>
      <point x="82" y="691" type="line"/>
      <point x="69" y="646"/>
      <point x="63" y="595"/>
      <point x="63" y="559" type="curve" smooth="yes"/>
      <point x="63" y="440"/>
      <point x="131" y="369"/>
    </contour>
  </outline>
</glyph>
<glyph name="uni0815" format="2">
  <advance width="937"/>
  <unicode hex="0815"/>
  <outline>
    <contour>
      <point x="109" y="-44" type="curve"/>
      <point x="226" y="0" type="line"/>
      <point x="212" y="28"/>
      <point x="208" y="69"/>
      <point x="208" y="117" type="curve" smooth="yes"/>
      <point x="208" y="223"/>
      <point x="243" y="374"/>
      <point x="313" y="493" type="curve"/>
      <point x="402" y="416"/>
      <point x="463" y="275"/>
      <point x="511" y="69" type="curve"/>
      <point x="566" y="58" type="line"/>
      <point x="642" y="156"/>
      <point x="745" y="253"/>
      <point x="858" y="322" type="curve"/>
      <point x="798" y="427" type="line"/>
      <point x="708" y="374"/>
      <point x="600" y="239"/>
      <point x="564" y="187" type="curve"/>
      <point x="498" y="448"/>
      <point x="398" y="634"/>
      <point x="215" y="671" type="curve"/>
      <point x="184" y="556" type="line"/>
      <point x="208" y="551"/>
      <point x="230" y="543"/>
      <point x="251" y="533" type="curve"/>
      <point x="169" y="405"/>
      <point x="88" y="229"/>
      <point x="88" y="85" type="curve" smooth="yes"/>
      <point x="88" y="39"/>
      <point x="93" y="-11"/>
    </contour>
  </outline>
</glyph>
<glyph name="uni0816" format="2">
  <unicode hex="0816"/>
  <outline>
    <contour>
      <point x="199" y="791" type="curve" smooth="yes"/>
      <point x="238" y="791"/>
      <point x="267" y="812"/>
      <point x="297" y="847" type="curve"/>
      <point x="261" y="884" type="line"/>
      <point x="242" y="865"/>
      <point x="225" y="847"/>
      <point x="199" y="847" type="curve" smooth="yes"/>
      <point x="179" y="847"/>
      <point x="158" y="859"/>
      <point x="158" y="881" type="curve" smooth="yes"/>
      <point x="158" y="891"/>
      <point x="161" y="907"/>
      <point x="169" y="913" type="curve" smooth="yes"/>
      <point x="188" y="927" type="line"/>
      <point x="151" y="964" type="line"/>
      <point x="128" y="943"/>
      <point x="118" y="935"/>
      <point x="101" y="935" type="curve" smooth="yes"/>
      <point x="75" y="935"/>
      <point x="60" y="949"/>
      <point x="60" y="972" type="curve" smooth="yes"/>
      <point x="60" y="990"/>
      <point x="82" y="1020"/>
      <point x="93" y="1024" type="curve"/>
      <point x="49" y="1063" type="line"/>
      <point x="20" y="1040"/>
      <point x="0" y="1008"/>
      <point x="0" y="976" type="curve" smooth="yes"/>
      <point x="0" y="929"/>
      <point x="35" y="893"/>
      <point x="97" y="887" type="curve"/>
      <point x="97" y="884"/>
      <point x="96" y="882"/>
      <point x="96" y="879" type="curve" smooth="yes"/>
      <point x="96" y="824"/>
      <point x="141" y="791"/>
    </contour>
  </outline>
</glyph>
<glyph name="uni0817" format="2">
  <unicode hex="0817"/>
  <outline>
    <contour>
      <point x="112" y="791" type="curve" smooth="yes"/>
      <point x="147" y="791"/>
      <point x="181" y="800"/>
      <point x="215" y="815" type="curve"/>
      <point x="205" y="849" type="line"/>
      <point x="201" y="848"/>
      <point x="198" y="848"/>
      <point x="194" y="848" type="curve" smooth="yes"/>
      <point x="167" y="848"/>
      <point x="158" y="863"/>
      <point x="158" y="879" type="curve" smooth="yes"/>
      <point x="158" y="892"/>
      <point x="168" y="909"/>
      <point x="188" y="915" type="curve"/>
      <point x="172" y="962" type="line"/>
      <point x="124" y="945"/>
      <point x="99" y="917"/>
      <point x="99" y="877" type="curve" smooth="yes"/>
      <point x="99" y="860"/>
      <point x="104" y="849"/>
      <point x="113" y="833" type="curve"/>
      <point x="111" y="833" type="line" smooth="yes"/>
      <point x="76" y="833"/>
      <point x="58" y="856"/>
      <point x="58" y="913" type="curve" smooth="yes"/>
      <point x="58" y="953"/>
      <point x="64" y="993"/>
      <point x="77" y="1054" type="curve"/>
      <point x="14" y="1064" type="line"/>
      <point x="5" y="1027"/>
      <point x="0" y="975"/>
      <point x="0" y="929" type="curve" smooth="yes"/>
      <point x="0" y="841"/>
      <point x="38" y="791"/>
    </contour>
  </outline>
</glyph>
<glyph name="uni0818" format="2">
  <unicode hex="0818"/>
  <outline>
    <contour>
      <point x="0" y="791" type="line"/>
      <point x="642" y="791" type="line"/>
      <point x="653" y="854" type="line"/>
      <point x="11" y="854" type="line"/>
    </contour>
  </outline>
</glyph>
<glyph name="uni081A" format="2">
  <advance width="405"/>
  <unicode hex="081A"/>
  <outline>
    <contour>
      <point x="83" y="742" type="line"/>
      <point x="91" y="777"/>
      <point x="103" y="793"/>
      <point x="132" y="793" type="curve" smooth="yes"/>
      <point x="191" y="793"/>
      <point x="228" y="742"/>
      <point x="280" y="742" type="curve" smooth="yes"/>
      <point x="331" y="742"/>
      <point x="373" y="772"/>
      <point x="389" y="831" type="curve"/>
      <point x="319" y="860" type="line"/>
      <point x="310" y="825"/>
      <point x="297" y="809"/>
      <point x="270" y="809" type="curve" smooth="yes"/>
      <point x="217" y="809"/>
      <point x="171" y="859"/>
      <point x="120" y="859" type="curve" smooth="yes"/>
      <point x="63" y="859"/>
      <point x="28" y="828"/>
      <point x="15" y="771" type="curve"/>
    </contour>
  </outline>
</glyph>
<glyph name="uni0820" format="2">
  <unicode hex="0820"/>
  <outline>
    <contour>
      <point x="-74" y="788" type="curve"/>
      <point x="-31" y="791" type="line"/>
      <point x="-21" y="845"/>
      <point x="-15" y="903"/>
      <point x="-15" y="945" type="curve" smooth="yes"/>
      <point x="-15" y="961"/>
      <point x="-15" y="976"/>
      <point x="-17" y="991" type="curve"/>
      <point x="-92" y="978" type="line"/>
      <point x="-83" y="946"/>
      <point x="-73" y="861"/>
      <point x="-73" y="815" type="curve" smooth="yes"/>
      <point x="-73" y="805"/>
      <point x="-73" y="796"/>
    </contour>
  </outline>
</glyph>
<glyph name="uni0822" format="2">
  <unicode hex="0822"/>
  <outline>
    <contour>
      <point x="-338" y="791" type="line"/>
      <point x="-9" y="791" type="line"/>
      <point x="0" y="848" type="line"/>
      <point x="-329" y="848" type="line"/>
    </contour>
  </outline>
</glyph>
<glyph name="uni0823" format="2">
  <unicode hex="0823"/>
  <outline>
    <contour>
      <point x="-286" y="791" type="line"/>
      <point x="-23" y="791" type="line"/>
      <point x="-15" y="840" type="line"/>
      <point x="-278" y="840" type="line"/>
    </contour>
  </outline>
</glyph>
<glyph name="uni0827" format="2">
  <unicode hex="0827"/>
  <outline>
    <contour>
      <point x="-214" y="785" type="line"/>
      <point x="-187" y="832"/>
      <point x="-170" y="870"/>
      <point x="-155" y="923" type="curve"/>
      <point x="-138" y="883"/>
      <point x="-105" y="830"/>
      <point x="-76" y="795" type="curve"/>
      <point x="-34" y="826" type="line"/>
      <point x="-81" y="880"/>
      <point x="-119" y="938"/>
      <point x="-141" y="996" type="curve"/>
      <point x="-188" y="984" type="line"/>
      <point x="-212" y="919"/>
      <point x="-244" y="857"/>
      <point x="-279" y="812" type="curve"/>
    </contour>
  </outline>
</glyph>
<glyph name="uni0828" format="2">
  <advance width="247"/>
  <unicode hex="0828"/>
  <outline>
    <contour>
      <point x="201" y="743" type="curve"/>
      <point x="234" y="802" type="line"/>
      <point x="174" y="839"/>
      <point x="125" y="858"/>
      <point x="84" y="862" type="curve"/>
      <point x="159" y="887"/>
      <point x="202" y="904"/>
      <point x="228" y="923" type="curve"/>
      <point x="207" y="963" type="line"/>
      <point x="178" y="941"/>
      <point x="118" y="913"/>
      <point x="26" y="879" type="curve"/>
      <point x="13" y="828" type="line"/>
      <point x="82" y="806"/>
      <point x="153" y="780"/>
    </contour>
  </outline>
</glyph>
<glyph name="uni0829" format="2">
  <unicode hex="0829"/>
  <outline>
    <contour>
      <point x="-54" y="778" type="curve"/>
      <point x="-13" y="854" type="line"/>
      <point x="-84" y="898"/>
      <point x="-147" y="922"/>
      <point x="-198" y="925" type="curve"/>
      <point x="-103" y="957"/>
      <point x="-51" y="978"/>
      <point x="-18" y="1002" type="curve"/>
      <point x="-46" y="1052" type="line"/>
      <point x="-104" y="1011"/>
      <point x="-182" y="981"/>
      <point x="-265" y="951" type="curve"/>
      <point x="-281" y="885" type="line"/>
      <point x="-187" y="857"/>
      <point x="-107" y="821"/>
    </contour>
  </outline>
</glyph>
<glyph name="uni082C" format="2">
  <unicode hex="082C"/>
  <outline>
    <contour>
      <point x="105" y="818" type="curve" smooth="yes"/>
      <point x="174" y="818"/>
      <point x="226" y="873"/>
      <point x="226" y="940" type="curve" smooth="yes"/>
      <point x="226" y="1000"/>
      <point x="183" y="1038"/>
      <point x="122" y="1038" type="curve" smooth="yes"/>
      <point x="51" y="1038"/>
      <point x="3" y="988"/>
      <point x="3" y="917" type="curve" smooth="yes"/>
      <point x="3" y="856"/>
      <point x="44" y="818"/>
    </contour>
    <contour>
      <point x="109" y="871" type="curve" smooth="yes"/>
      <point x="75" y="871"/>
      <point x="58" y="889"/>
      <point x="58" y="921" type="curve" smooth="yes"/>
      <point x="58" y="962"/>
      <point x="83" y="986"/>
      <point x="118" y="986" type="curve" smooth="yes"/>
      <point x="149" y="986"/>
      <point x="169" y="966"/>
      <point x="169" y="932" type="curve" smooth="yes"/>
      <point x="169" y="894"/>
      <point x="142" y="871"/>
    </contour>
  </outline>
</glyph>
<glyph name="uni082D" format="2">
  <unicode hex="082D"/>
  <outline>
    <contour>
      <point x="99" y="791" type="line"/>
      <point x="164" y="891" type="line"/>
      <point x="67" y="958" type="line"/>
      <point x="0" y="858" type="line"/>
    </contour>
  </outline>
</glyph>
<glyph name="uni0833" format="2">
  <advance width="875"/>
  <unicode hex="0833"/>
  <outline>
    <contour>
      <point x="312" y="59" type="line"/>
      <point x="395" y="117"/>
      <point x="401" y="179"/>
      <point x="401" y="235" type="curve" smooth="yes"/>
      <point x="401" y="339"/>
      <point x="279" y="435"/>
      <point x="181" y="539" type="curve"/>
      <point x="194" y="545"/>
      <point x="210" y="546"/>
      <point x="229" y="546" type="curve" smooth="yes"/>
      <point x="309" y="546"/>
      <point x="384" y="500"/>
      <point x="497" y="500" type="curve" smooth="yes"/>
      <point x="509" y="500"/>
      <point x="541" y="501"/>
      <point x="554" y="503" type="curve"/>
      <point x="573" y="613" type="line"/>
      <point x="557" y="609"/>
      <point x="519" y="607"/>
      <point x="498" y="607" type="curve" smooth="yes"/>
      <point x="382" y="607"/>
      <point x="342" y="622"/>
      <point x="214" y="622" type="curve" smooth="yes"/>
      <point x="166" y="622"/>
      <point x="128" y="613"/>
      <point x="98" y="599" type="curve"/>
      <point x="115" y="535" type="line"/>
      <point x="153" y="488"/>
      <point x="310" y="369"/>
      <point x="310" y="270" type="curve" smooth="yes"/>
      <point x="310" y="216"/>
      <point x="286" y="188"/>
      <point x="240" y="162" type="curve"/>
    </contour>
    <contour>
      <point x="713" y="451" type="line"/>
      <point x="777" y="551" type="line"/>
      <point x="681" y="617" type="line"/>
      <point x="613" y="518" type="line"/>
    </contour>
  </outline>
</glyph>
<glyph name="uni0836" format="2">
  <advance width="670"/>
  <unicode hex="0836"/>
  <outline>
    <contour>
      <point x="214" y="-9" type="curve" smooth="yes"/>
      <point x="342" y="-9"/>
      <point x="382" y="5"/>
      <point x="498" y="5" type="curve" smooth="yes"/>
      <point x="519" y="5"/>
      <point x="557" y="3"/>
      <point x="573" y="-1" type="curve"/>
      <point x="554" y="109" type="line"/>
      <point x="541" y="111"/>
      <point x="509" y="113"/>
      <point x="497" y="113" type="curve" smooth="yes"/>
      <point x="384" y="113"/>
      <point x="309" y="66"/>
      <point x="229" y="66" type="curve" smooth="yes"/>
      <point x="210" y="66"/>
      <point x="194" y="67"/>
      <point x="181" y="74" type="curve"/>
      <point x="279" y="178"/>
      <point x="358" y="227"/>
      <point x="358" y="331" type="curve" smooth="yes"/>
      <point x="358" y="370"/>
      <point x="355" y="421"/>
      <point x="282" y="477" type="curve"/>
      <point x="210" y="376" type="line"/>
      <point x="247" y="354"/>
      <point x="267" y="336"/>
      <point x="267" y="288" type="curve" smooth="yes"/>
      <point x="267" y="199"/>
      <point x="153" y="125"/>
      <point x="115" y="77" type="curve"/>
      <point x="98" y="14" type="line"/>
      <point x="128" y="-1"/>
      <point x="166" y="-9"/>
    </contour>
    <contour>
      <point x="294" y="519" type="line"/>
      <point x="359" y="619" type="line"/>
      <point x="263" y="686" type="line"/>
      <point x="195" y="586" type="line"/>
    </contour>
  </outline>
</glyph>
<glyph name="uni083D" format="2">
  <advance width="806"/>
  <unicode hex="083D"/>
  <outline>
    <contour>
      <point x="165" y="147" type="line"/>
      <point x="519" y="608" type="line"/>
      <point x="452" y="661" type="line"/>
      <point x="98" y="200" type="line"/>
    </contour>
    <contour>
      <point x="433" y="149" type="line"/>
      <point x="497" y="250" type="line"/>
      <point x="400" y="316" type="line"/>
      <point x="333" y="216" type="line"/>
    </contour>
    <contour>
      <point x="644" y="156" type="line"/>
      <point x="708" y="257" type="line"/>
      <point x="611" y="323" type="line"/>
      <point x="544" y="224" type="line"/>
    </contour>
    <contour>
      <point x="536" y="312" type="line"/>
      <point x="600" y="412" type="line"/>
      <point x="504" y="478" type="line"/>
      <point x="436" y="379" type="line"/>
    </contour>
  </outline>
</glyph>
<glyph name="uni083E" format="2">
  <advance width="425"/>
  <unicode hex="083E"/>
  <outline>
    <contour>
      <point x="203" y="253" type="curve" smooth="yes"/>
      <point x="277" y="253"/>
      <point x="328" y="313"/>
      <point x="328" y="379" type="curve" smooth="yes"/>
      <point x="328" y="441"/>
      <point x="281" y="480"/>
      <point x="220" y="480" type="curve" smooth="yes"/>
      <point x="150" y="480"/>
      <point x="98" y="432"/>
      <point x="98" y="355" type="curve" smooth="yes"/>
      <point x="98" y="292"/>
      <point x="141" y="253"/>
    </contour>
    <contour>
      <point x="207" y="308" type="curve" smooth="yes"/>
      <point x="172" y="308"/>
      <point x="154" y="327"/>
      <point x="154" y="359" type="curve" smooth="yes"/>
      <point x="154" y="401"/>
      <point x="180" y="427"/>
      <point x="216" y="427" type="curve" smooth="yes"/>
      <point x="248" y="427"/>
      <point x="269" y="405"/>
      <point x="269" y="370" type="curve" smooth="yes"/>
      <point x="269" y="333"/>
      <point x="241" y="308"/>
    </contour>
  </outline>
</glyph>
